<svg width="40" height="40" xmlns="http://www.w3.org/2000/svg" clip-rule="evenodd">

 <g>
  <title>background</title>
  <rect fill="none" id="canvas_background" height="42" width="42" y="-1" x="-1"/>
 </g>
 <g>
  <title>Layer 1</title>
  <path stroke="null" id="svg_1" fill="#ffffff" fill-rule="nonzero" d="m14.447489,10.586549c0.008524,0.000432 0.017047,0.001296 0.025038,0.001728c-0.011187,0.199602 -0.02344,0.399205 -0.033562,0.599239c-0.004262,0.079495 -0.009589,0.159855 -0.003729,0.23935c0.00586,0.08468 0.057535,0.155966 0.156089,0.186209c0.137444,0.041908 0.280215,0.073879 0.422454,0.104986c0.094826,0.02117 0.183791,-0.027219 0.22268,-0.114059c0.034095,-0.075175 0.071918,-0.149486 0.098022,-0.225957c0.597721,-1.752786 1.144833,-3.515509 1.463938,-5.31798c0.129453,-0.731876 0.218951,-1.46764 0.19924,-2.210316c-0.010655,-0.381923 -0.068189,-0.757798 -0.164613,-1.129352c-0.045282,-0.174544 -0.133715,-0.341744 -0.203502,-0.512399c-0.007991,-0.018578 -0.024506,-0.034563 -0.03516,-0.052709c-0.06446,-0.112762 -0.1465,-0.17368 -0.201371,-0.143437c-0.057002,0.031539 -0.118798,0.067398 -0.15236,0.114059c-0.263701,0.365074 -0.421921,0.765143 -0.565758,1.168236c-0.273822,0.769031 -0.457614,1.553616 -0.603581,2.344249c-0.139042,0.750885 -0.264233,1.503499 -0.340413,2.260865c-0.090031,0.896051 -0.188586,1.79167 -0.283411,2.687288m-1.908233,27.809546c0.174202,0 0.321235,0.000864 0.468268,-0.001296c0.02344,0 0.054871,-0.006913 0.067124,-0.020306c0.012253,-0.013393 0.017047,-0.050117 0.006393,-0.056597c-0.095358,-0.057893 -0.189651,-0.119243 -0.293533,-0.165903c-1.680225,-0.754342 -2.975288,-1.824073 -3.949115,-3.159076c-0.100153,-0.137389 -0.19338,-0.278234 -0.294599,-0.41519c-0.037824,-0.050117 -0.079909,-0.104122 -0.136911,-0.138253c-0.30845,-0.187937 -0.650994,-0.28385 -1.03882,-0.206515c-0.568954,0.113194 -0.95678,0.404821 -1.168806,0.839454c-0.297795,0.609608 -0.201904,1.214464 0.086302,1.808519c0.06446,0.132636 0.177931,0.243238 0.320702,0.323166c0.201904,0.113194 0.404874,0.232005 0.627021,0.312365c0.313777,0.113194 0.640339,0.207379 0.969566,0.285578c1.425048,0.337423 2.892715,0.472652 4.336409,0.594055m-0.966902,-24.993942c0.060731,-0.089864 0.113471,-0.137389 0.125724,-0.191826c0.041553,-0.176272 0.077778,-0.354273 0.09962,-0.533137c0.071918,-0.577205 0.135313,-1.155275 0.204568,-1.73248c0.119331,-0.996284 0.225344,-1.993 0.27329,-2.993173c0.011187,-0.239782 0.031964,-0.479564 0.047946,-0.719346c0.094293,-1.380368 0.108677,-2.760303 -0.072984,-4.137646c-0.049544,-0.378467 -0.126789,-0.753478 -0.282879,-1.114231c-0.040487,-0.093321 -0.101218,-0.180593 -0.159286,-0.268297c-0.045815,-0.06999 -0.180062,-0.096777 -0.254644,-0.047956c-0.094826,0.062214 -0.198175,0.121835 -0.268495,0.200034c-0.1758,0.196578 -0.275421,0.424695 -0.355863,0.656269c-0.154491,0.444137 -0.253046,0.898211 -0.291935,1.357469c-0.107611,1.280134 -0.071918,2.560701 0.038356,3.839539c0.053806,0.618681 0.15236,1.234338 0.222148,1.852155c0.120397,1.056338 0.330292,2.10317 0.51355,3.153027c0.037291,0.214724 0.100153,0.426423 0.160884,0.679599m8.478905,25.235884c0.568421,-0.000432 1.132048,-0.048388 1.697273,-0.099801c1.899709,-0.172816 3.734426,-0.553443 5.508944,-1.123304c0.850234,-0.273049 1.667973,-0.602264 2.439896,-1.002333c0.521541,-0.270457 1.010586,-0.573749 1.449554,-0.928454c0.298861,-0.24151 0.567356,-0.503327 0.770858,-0.803162c0.082573,-0.121403 0.145435,-0.253607 0.197109,-0.386244c0.063927,-0.163743 -0.020776,-0.337423 -0.198175,-0.413894c-0.151828,-0.065238 -0.307917,-0.1335 -0.471997,-0.166335c-0.286608,-0.057461 -0.579076,-0.10801 -0.872076,-0.12702c-0.86302,-0.055301 -1.728704,-0.043204 -2.588527,0.030243c-1.818735,0.155102 -3.609235,0.439817 -5.377893,0.814395c-0.837449,0.177568 -1.648262,0.417783 -2.420718,0.736628c-0.574281,0.236758 -1.114468,0.515856 -1.59126,0.869696c-0.311646,0.231141 -0.588665,0.486045 -0.793233,0.787177c-0.119331,0.17584 -0.210428,0.360321 -0.239728,0.56338c-0.064993,0.450186 0.130518,0.780696 0.617965,1.002333c0.327095,0.148622 0.68136,0.23503 1.057999,0.245399c0.271159,0.007777 0.54285,0.001296 0.814009,0.001296m9.687133,-6.264147c0.194446,-0.524064 0.24399,-1.026095 0.292468,-1.522941c0.155024,-1.582994 0.087367,-3.16426 -0.134248,-4.741206c-0.053273,-0.379331 -0.166744,-0.749589 -0.324432,-1.109047c-0.099087,-0.226821 -0.225344,-0.445001 -0.451754,-0.613065c-0.104947,-0.078199 -0.305786,-0.093753 -0.408603,-0.019874c-0.092162,0.066102 -0.169408,0.146462 -0.265299,0.208675c-0.380368,0.245399 -0.940798,0.085976 -1.053737,-0.300268c-0.057002,-0.19485 -0.098022,-0.393156 -0.141706,-0.590167c-0.354264,-1.588179 -0.987146,-3.100751 -1.885858,-4.539444c-0.628087,-1.005789 -1.386159,-1.941587 -2.320565,-2.780177c-0.565225,-0.507647 -1.186386,-0.964313 -1.891718,-1.342348c-0.497568,-0.266569 -1.023904,-0.484749 -1.599783,-0.618249c-0.915227,-0.212564 -1.805949,-0.182753 -2.662044,0.181889c-0.131051,0.055733 -0.264233,0.10801 -0.399546,0.156398c-0.129453,0.046228 -0.32017,0 -0.392088,-0.099801c-0.149164,-0.207379 -0.291935,-0.418215 -0.434706,-0.628618c-0.201904,-0.29854 -0.385163,-0.606152 -0.604647,-0.896483c-0.449623,-0.594487 -1.229537,-0.863648 -2.103212,-0.745269c-0.024506,0.003024 -0.053806,0.005617 -0.069787,0.017714c-0.051675,0.039748 -0.112406,0.077767 -0.142771,0.127452c-0.031431,0.051845 -0.032496,0.116219 -0.045282,0.174976c-0.200306,0.907284 -0.397948,1.814568 -0.601983,2.720987c-0.026104,0.116651 -0.072984,0.232005 -0.126789,0.34304c-0.049544,0.101961 -0.160884,0.146029 -0.294599,0.14819c-0.127322,0.00216 -0.256242,-0.059622 -0.296197,-0.147758c-0.051142,-0.11233 -0.104947,-0.225093 -0.138509,-0.341744c-0.162482,-0.56554 -0.319637,-1.132377 -0.476259,-1.698781c-0.048478,-0.174112 -0.079377,-0.352113 -0.217886,-0.521472c-0.088433,0.032403 -0.185389,0.054005 -0.262102,0.098505c-0.221082,0.128748 -0.440034,0.260088 -0.64833,0.401365c-1.916757,1.301736 -2.733962,2.206428 -3.628946,4.08969c-0.348404,0.733604 -0.567356,1.492698 -0.676032,2.272098c-0.072984,0.520608 -0.053273,1.040352 0.095358,1.554048c0.068189,0.235894 0.167809,0.460987 0.322301,0.668366c0.24399,0.328782 0.601983,0.527953 1.067588,0.588006c0.776718,0.100233 1.529996,0.040612 2.235861,-0.25836c0.24026,-0.101961 0.477857,-0.212564 0.695211,-0.343472c0.902442,-0.543506 1.665842,-1.199775 2.234263,-1.985656c0.850767,-1.176445 1.822996,-2.288948 2.710522,-3.44595c0.051142,-0.066966 0.125191,-0.122267 0.192315,-0.180593c0.048478,-0.04234 0.200839,-0.046228 0.279682,-0.011665c0.113471,0.049253 0.183259,0.172816 0.131051,0.251447c-0.140108,0.2117 -0.287141,0.420375 -0.430445,0.630346c-1.065457,1.560096 -2.147961,3.112416 -3.255503,4.65307c-0.174202,0.242374 -0.338815,0.489069 -0.500765,0.736628c-0.055404,0.085976 -0.0879,0.181889 -0.131051,0.273049c0.047413,0.014257 0.071386,0.028947 0.09376,0.027219c0.120929,-0.009937 0.242924,-0.018146 0.362255,-0.036723c0.770858,-0.120107 1.52307,-0.08252 2.253441,0.165471c0.370779,0.125724 0.702669,0.296379 0.958378,0.549123c0.092162,0.090728 0.161949,0.200467 0.217353,0.309773c0.051675,0.102826 -0.014916,0.19485 -0.106546,0.269593c-0.0879,0.071287 -0.249317,0.08684 -0.339881,0.032403c-0.079377,-0.047092 -0.162482,-0.092889 -0.229606,-0.149918c-0.438968,-0.371986 -0.993538,-0.505919 -1.606709,-0.521472c-0.85716,-0.02117 -1.597652,0.219476 -2.23959,0.669662c-0.359592,0.251447 -0.639807,0.556035 -0.874207,0.889138c-0.271159,0.384948 -0.46667,0.795818 -0.609441,1.222673c-0.22055,0.660589 -0.32017,1.335435 -0.354797,2.018491c-0.066591,1.330683 0.062329,2.643652 0.501297,3.930267c0.412864,1.211872 1.072382,2.324807 2.05793,3.302081c1.122459,1.112935 2.507552,1.919553 4.210685,2.352889c0.520476,0.132636 1.061195,0.183185 1.592325,0.270457c0.025571,0.00432 0.094826,-0.048388 0.091097,-0.068694c-0.009056,-0.057893 -0.041553,-0.114059 -0.072984,-0.167631c-0.318572,-0.544802 -0.267962,-1.090901 0.005327,-1.631383c0.198708,-0.393156 0.504494,-0.733604 0.861422,-1.043808c0.475726,-0.413462 1.023371,-0.753478 1.615232,-1.049425c0.803887,-0.400933 1.662112,-0.704225 2.555498,-0.947032c0.796962,-0.216884 1.609372,-0.388836 2.426578,-0.546531c1.418656,-0.273481 2.848499,-0.497278 4.308707,-0.575477c0.341479,-0.018146 0.688285,-0.020306 1.083037,-0.08468m-16.084667,-20.852839c0.009589,-0.101529 0.031964,-0.199602 0.026636,-0.296811c-0.076713,-1.363086 0.012253,-2.724444 0.049544,-4.086234c0.018645,-0.683055 0.121995,-1.358766 0.20883,-2.03534c0.080975,-0.636827 0.2051,-1.271061 0.392088,-1.894927c0.1465,-0.487341 0.316973,-0.967337 0.573216,-1.4253c0.153958,-0.275209 0.33775,-0.534865 0.577478,-0.766871c0.159819,-0.154238 0.340413,-0.289899 0.558299,-0.3897c0.2344,-0.10801 0.468268,-0.114059 0.705332,-0.006481c0.284477,0.129612 0.515148,0.308477 0.715454,0.515424c0.389957,0.403957 0.600385,0.87056 0.722912,1.367406c0.156089,0.633803 0.1758,1.274518 0.106013,1.915665c-0.088433,0.818716 -0.250915,1.628359 -0.474661,2.430657c-0.448025,1.604596 -1.072382,3.165557 -1.744153,4.715284c-0.073517,0.169792 -0.149697,0.338719 -0.23227,0.524496c0.04688,0.063078 0.084704,0.138685 0.147566,0.195282c0.466137,0.419079 0.7048,0.91074 0.734632,1.472824c0.002131,0.036723 0.034095,0.072583 0.052207,0.109306c0.125724,0.041044 0.240793,-0.001296 0.350003,-0.039748c0.678163,-0.238054 1.387757,-0.263112 2.109604,-0.214292c0.372377,0.025058 0.728772,0.104554 1.081439,0.197442c0.735165,0.193554 1.404805,0.490365 2.03449,0.849823c0.750614,0.428584 1.422385,0.92975 2.032359,1.485785c1.548109,1.411474 2.659913,3.029464 3.431303,4.805148c0.262102,0.604856 0.473063,1.222241 0.628087,1.851723c0.033029,0.135228 0.050609,0.278234 0.212559,0.399205c0.070853,0.005617 0.167277,0.018146 0.264233,0.020738c0.564159,0.014257 0.978622,0.246263 1.311577,0.593623c0.261037,0.272617 0.429912,0.58455 0.549243,0.912468c0.174735,0.482157 0.295132,0.97425 0.310581,1.477145c0.022375,0.740948 0.035693,1.482329 0.035693,2.223277c-0.000533,1.18595 -0.155024,2.35937 -0.468801,3.518101c-0.010655,0.039316 -0.013851,0.079927 -0.025571,0.118379c-0.0879,0.302428 -0.065526,0.382787 0.364919,0.425559c0.293001,0.029379 0.587067,0.074311 0.86888,0.144733c0.256775,0.063942 0.51355,0.15035 0.743156,0.263544c0.824664,0.407846 1.057999,1.020478 0.7927,1.764019c-0.096424,0.270889 -0.271159,0.514992 -0.467203,0.747861c-0.394752,0.467467 -0.882198,0.862352 -1.429843,1.210576c-0.66378,0.422967 -1.385626,0.768167 -2.144764,1.064978c-1.409599,0.549987 -2.891117,0.924997 -4.418982,1.184653c-1.748947,0.296811 -3.516007,0.418647 -5.302778,0.36853c-0.57215,-0.015985 -1.133113,-0.060486 -1.686085,-0.214724c-0.416594,0.120539 -0.858758,0.159423 -1.30039,0.187937c-1.62642,0.104122 -3.254438,0.183617 -4.886185,0.130044c-1.161348,-0.03802 -2.316836,-0.119675 -3.451547,-0.340015c-0.505559,-0.098505 -0.998333,-0.228117 -1.471396,-0.402229c-0.360657,-0.132636 -0.701071,-0.295515 -1.005258,-0.504623c-0.447492,-0.308044 -0.738362,-0.687376 -0.864085,-1.159163c-0.153958,-0.578069 -0.183259,-1.15009 0.018113,-1.723407c0.166211,-0.473948 0.459212,-0.88525 0.926947,-1.205391c0.407537,-0.27953 0.873675,-0.449322 1.416525,-0.458826c0.148098,-0.003024 0.296197,-0.000432 0.444295,-0.001728c0.070853,-0.000864 0.143304,-0.066534 0.125191,-0.114923c-0.056469,-0.153374 -0.115069,-0.306316 -0.173137,-0.459258c-0.534859,-1.414499 -0.726109,-2.858376 -0.575879,-4.333793c0.062862,-0.620409 0.160884,-1.233906 0.350535,-1.837898c0.152893,-0.487341 0.36119,-0.957833 0.638741,-1.40629c0.324432,-0.524496 0.726109,-1.010541 1.291866,-1.377775c0.373443,-0.242806 0.54871,-0.554307 0.678163,-0.902099c0.004262,-0.011665 -0.019711,-0.034995 -0.037291,-0.046228c-0.015449,-0.009937 -0.045815,-0.019874 -0.059666,-0.014257c-0.152893,0.06351 -0.306319,0.126588 -0.455483,0.195714c-0.840645,0.392292 -1.744685,0.538754 -2.708391,0.469627c-0.989277,-0.070855 -1.719647,-0.45537 -2.189514,-1.16478c-0.370246,-0.558628 -0.516747,-1.165212 -0.552439,-1.791238c-0.051142,-0.909876 0.120397,-1.797286 0.426183,-2.670439c0.271159,-0.774216 0.653125,-1.509548 1.154955,-2.205132c0.40221,-0.557764 0.890722,-1.057634 1.460741,-1.507387c0.801756,-0.631642 1.69088,-1.168668 2.659913,-1.619718c0.149697,-0.06999 0.300992,-0.137821 0.448557,-0.210403c0.088966,-0.044068 0.145435,-0.11017 0.129986,-0.198738c-0.031964,-0.178432 -0.063395,-0.356865 -0.106013,-0.533569c-0.297795,-1.238658 -0.547112,-2.482933 -0.737296,-3.736281c-0.186988,-1.23477 -0.295132,-2.4717 -0.270093,-3.716407c0.013851,-0.703793 0.098555,-1.399377 0.306319,-2.083297c0.094826,-0.312797 0.233335,-0.611337 0.427781,-0.893027c0.1465,-0.212132 0.328693,-0.400069 0.556168,-0.558196c0.331357,-0.230277 0.713856,-0.347792 1.152291,-0.354705c0.422986,-0.006913 0.768194,0.121403 1.052671,0.369826c0.240793,0.209971 0.393686,0.460987 0.502363,0.728851c0.162482,0.400501 0.265831,0.813099 0.310048,1.233474c0.101218,0.959561 0.15236,1.919553 0.055404,2.881706c-0.015982,0.159423 -0.024506,0.320142 -0.0293,0.480428c-0.026636,0.882226 -0.148631,1.75797 -0.273822,2.633715c-0.119864,0.835565 -0.247719,1.670266 -0.369181,2.5054c-0.01172,0.078199 -0.014916,0.159423 -0.002664,0.236758c0.004795,0.028083 0.063395,0.069558 0.100686,0.071719c0.199773,0.013393 0.387826,-0.026354 0.588665,-0.097209"/>
 </g>
</svg>